<?xml version="1.0" standalone="no"?>
<!DOCTYPE svg PUBLIC "-//W3C//DTD SVG 20010904//EN"
 "http://www.w3.org/TR/2001/REC-SVG-20010904/DTD/svg10.dtd">
<svg version="1.0" xmlns="http://www.w3.org/2000/svg"
 width="214.000000pt" height="236.000000pt" viewBox="0 0 214.000000 236.000000"
 preserveAspectRatio="xMidYMid meet">
<metadata>
Created by potrace 1.16, written by Peter Selinger 2001-2019
</metadata>
<g transform="translate(0.000000,236.000000) scale(0.100000,-0.100000)"
fill="#000000" stroke="none">
<path d="M1922 1681 c-205 -119 -514 -296 -552 -315 -14 -7 -166 -93 -338
-191 l-312 -177 33 -47 c119 -165 355 -210 529 -99 46 29 96 78 116 114 9 16
28 7 181 -76 94 -51 171 -99 171 -106 0 -7 -16 -34 -36 -61 -114 -151 -263
-254 -441 -305 -111 -32 -295 -32 -406 0 -189 54 -376 191 -464 340 -14 23
-26 42 -28 42 -6 0 -341 -192 -350 -201 -6 -6 -2 -16 10 -28 11 -11 238 -142
505 -292 435 -244 490 -272 530 -272 40 0 95 29 535 275 306 172 497 286 510
303 19 26 20 44 23 568 2 298 0 556 -3 573 -13 71 -14 70 -213 -45z"/>
</g>
</svg>
