<?xml version="1.0" standalone="no"?>
<!DOCTYPE svg PUBLIC "-//W3C//DTD SVG 20010904//EN"
 "http://www.w3.org/TR/2001/REC-SVG-20010904/DTD/svg10.dtd">
<svg version="1.0" xmlns="http://www.w3.org/2000/svg"
 width="256.000000pt" height="256.000000pt" viewBox="0 0 256.000000 256.000000"
 preserveAspectRatio="xMidYMid meet">
<metadata>
Created by potrace 1.16, written by Peter Selinger 2001-2019
</metadata>
<g transform="translate(0.000000,256.000000) scale(0.100000,-0.100000)"
fill="#000000" stroke="none">
<path d="M0 2188 c0 -340 1 -371 16 -350 32 46 61 52 247 52 l173 0 13 51 c19
72 98 151 170 170 l51 13 0 173 c0 186 6 215 52 247 21 15 -10 16 -350 16
l-372 0 0 -372z"/>
<path d="M872 2550 c9 -6 26 -25 37 -44 19 -30 21 -49 21 -210 l0 -176 110 0
110 0 0 175 c0 188 6 217 52 249 21 15 8 16 -162 16 -125 -1 -180 -4 -168 -10z"/>
<path d="M1358 2544 c46 -32 52 -61 52 -249 l0 -175 110 0 110 0 0 171 c0 183
8 223 54 254 18 13 1 15 -164 15 -170 0 -183 -1 -162 -16z"/>
<path d="M1856 2524 l34 -35 0 -185 c0 -173 1 -184 19 -184 71 0 181 -98 202
-180 l13 -50 173 0 c186 0 215 -6 247 -52 15 -21 16 10 16 350 l0 372 -369 0
-368 0 33 -36z"/>
<path d="M780 2513 c-8 -3 -25 -15 -37 -26 -22 -20 -23 -27 -23 -184 l0 -163
80 0 80 0 0 163 c0 150 -2 165 -20 185 -12 12 -25 22 -30 22 -4 0 -14 2 -22 4
-7 3 -20 2 -28 -1z"/>
<path d="M1231 2494 l-31 -26 0 -164 0 -164 80 0 80 0 0 164 0 164 -31 26
c-17 14 -39 26 -49 26 -10 0 -32 -12 -49 -26z"/>
<path d="M1725 2508 c-41 -24 -44 -37 -45 -205 l0 -163 80 0 80 0 0 163 c0
157 -1 164 -22 185 -29 27 -68 35 -93 20z"/>
<path d="M651 2070 c-52 -12 -113 -63 -141 -116 l-25 -48 -3 -596 c-2 -396 1
-612 8 -645 14 -66 53 -120 109 -153 l46 -27 636 0 636 0 49 30 c30 19 60 49
79 79 l30 49 3 601 c2 402 -1 617 -8 651 -14 66 -53 120 -109 153 l-46 27
-615 2 c-338 1 -630 -2 -649 -7z m473 -96 c68 -10 51 -28 -33 -36 -159 -14
-170 -21 -152 -101 6 -29 59 -160 117 -292 58 -132 149 -347 202 -477 68 -167
99 -233 105 -223 15 28 173 428 217 550 23 66 53 147 65 180 26 70 75 258 75
290 0 38 -33 56 -125 70 -48 7 -92 18 -98 24 -15 15 517 20 532 5 12 -12 -31
-32 -88 -42 -35 -6 -73 -19 -84 -29 -24 -22 -24 -22 -194 -443 -238 -590 -259
-643 -293 -745 -36 -110 -52 -135 -76 -120 -8 6 -45 87 -83 180 -111 281 -463
1074 -491 1106 -19 23 -44 36 -104 52 -130 36 -112 46 91 50 98 1 221 4 274 5
53 1 117 -1 143 -4z"/>
<path d="M73 1818 c-29 -32 -36 -63 -22 -90 24 -44 36 -47 207 -48 l162 0 0
80 0 80 -163 0 c-157 0 -164 -1 -184 -22z"/>
<path d="M2140 1760 l0 -80 163 0 c157 0 164 1 184 23 29 31 36 62 22 89 -24
44 -36 47 -206 48 l-163 0 0 -80z"/>
<path d="M0 1520 c0 -170 1 -183 16 -162 32 46 61 52 249 52 l175 0 0 110 0
110 -170 0 c-151 0 -175 2 -210 20 -21 11 -44 28 -49 37 -7 13 -10 -36 -11
-167z"/>
<path d="M2543 1682 c-26 -43 -71 -52 -252 -52 l-171 0 0 -110 0 -110 175 0
c188 0 217 -6 249 -52 15 -21 16 -8 16 160 0 100 -1 182 -3 182 -1 0 -7 -8
-14 -18z"/>
<path d="M66 1329 c-14 -17 -26 -39 -26 -49 0 -10 12 -32 26 -49 l26 -31 164
0 164 0 0 80 0 80 -164 0 -164 0 -26 -31z"/>
<path d="M2140 1280 l0 -80 163 0 c157 0 164 1 185 23 35 37 37 69 7 105 l-27
32 -164 0 -164 0 0 -80z"/>
<path d="M0 1040 c0 -149 2 -181 13 -168 6 9 28 26 47 37 32 19 51 21 208 21
l172 0 0 110 0 110 -175 0 c-188 0 -217 6 -249 52 -15 21 -16 8 -16 -162z"/>
<path d="M2540 1200 c-23 -43 -58 -50 -245 -50 l-175 0 0 -110 0 -110 171 0
c183 0 223 -8 254 -54 13 -18 15 -1 15 162 0 100 -2 182 -5 182 -2 0 -9 -9
-15 -20z"/>
<path d="M79 867 c-43 -33 -46 -81 -6 -124 20 -22 27 -23 184 -23 l163 0 0 80
0 80 -162 0 c-112 -1 -168 -4 -179 -13z"/>
<path d="M2140 800 l0 -80 163 0 c157 0 164 1 184 23 29 31 36 62 22 89 -24
44 -36 47 -206 48 l-163 0 0 -80z"/>
<path d="M0 372 l0 -372 378 0 c339 1 374 2 350 16 -51 27 -58 56 -58 248 l0
174 -40 7 c-76 13 -171 109 -185 188 l-7 37 -175 0 c-186 0 -215 6 -247 52
-15 21 -16 -10 -16 -350z"/>
<path d="M2546 725 c-3 -8 -20 -24 -38 -35 -30 -18 -51 -20 -210 -20 -167 0
-178 -1 -178 -19 0 -81 -130 -211 -211 -211 -18 0 -19 -10 -19 -175 0 -188 -6
-217 -52 -249 -21 -15 10 -16 350 -16 l372 0 0 370 c0 204 -2 370 -4 370 -2 0
-6 -7 -10 -15z"/>
<path d="M930 269 c0 -156 -2 -175 -21 -209 -12 -21 -31 -43 -43 -48 -15 -8
31 -11 169 -11 174 -1 188 0 167 15 -46 32 -52 61 -52 249 l0 175 -110 0 -110
0 0 -171z"/>
<path d="M1410 265 c0 -188 -6 -217 -52 -249 -21 -15 -8 -16 162 -16 165 0
182 2 164 15 -46 31 -54 71 -54 254 l0 171 -110 0 -110 0 0 -175z"/>
<path d="M720 257 c0 -161 0 -164 25 -187 15 -14 37 -23 55 -23 18 0 40 9 55
23 25 23 25 26 25 187 l0 163 -80 0 -80 0 0 -163z"/>
<path d="M1200 257 c0 -157 1 -164 23 -185 37 -35 69 -37 105 -7 l32 27 0 164
0 164 -80 0 -80 0 0 -163z"/>
<path d="M1680 256 l0 -164 31 -26 c34 -29 50 -32 82 -14 43 23 46 36 47 206
l0 162 -80 0 -80 0 0 -164z"/>
</g>
</svg>
